<svg width="122" height="100" viewBox="0 0 122 100" fill="none" xmlns="http://www.w3.org/2000/svg">
<path d="M49.7324 10.2817C48.9696 9.84366 48.0211 9.15866 47.4429 8.43473C47.4318 8.42094 47.4253 8.40394 47.4244 8.38607C47.4235 8.3682 47.4283 8.35034 47.438 8.33496C48.3398 6.94672 49.2575 5.61079 50.7375 4.84671C52.8179 3.77358 54.4762 2.31355 56.8408 1.58719C58.81 0.981277 60.9592 0.490139 63.2885 0.113776C63.8925 0.0164403 64.2333 -0.0662951 64.8386 0.0772745C65.6563 0.271134 66.4744 0.462967 67.2929 0.652771C69.1863 1.09321 70.7585 2.06292 72.5018 2.85133C73.0972 3.12063 73.52 3.34328 73.7702 3.5193C74.2992 3.89039 74.6916 4.65204 75.1185 5.03164C75.5466 5.41247 76.1396 5.5828 76.5173 5.97215C77.1045 6.57725 77.6368 7.22534 78.1142 7.91642C78.1264 7.93392 78.1329 7.95469 78.1327 7.97585C78.1324 7.99701 78.1255 8.01749 78.1129 8.03444L76.5173 10.1977C76.5073 10.211 76.4926 10.22 76.4763 10.2227C76.46 10.2254 76.4433 10.2217 76.43 10.2123C75.3486 9.47135 74.9094 8.23154 73.8624 7.39689C73.1932 6.86398 72.4993 6.2532 71.8424 5.81641C69.7866 4.45006 67.7739 4.01084 65.4758 3.46211C64.791 3.29826 64.2678 3.22121 63.9061 3.23094C63.1901 3.25041 62.4974 3.52173 61.8528 3.62028C59.567 3.96947 57.4288 4.3795 55.4211 5.54874C54.7838 5.92105 54.0518 6.52452 53.3567 6.98808C53.1549 7.12192 52.9618 7.62198 52.7354 7.83977C52.2618 8.29481 51.718 8.68415 51.2481 9.12216C50.8035 9.53746 50.3328 9.92234 49.8357 10.2768C49.8207 10.2874 49.8029 10.2934 49.7846 10.2943C49.7663 10.2952 49.7481 10.2908 49.7324 10.2817Z" fill="white"/>
<path d="M11.8119 43.6591C10.5177 43.6554 8.57141 40.6393 7.92431 39.661C6.05187 36.8253 4.1778 33.9908 2.30208 31.1576C2.01913 30.7309 1.68245 30.2698 1.29205 29.7742C0.664627 28.9809 -0.224839 28.0124 0.0519661 27.0744C0.118399 26.8505 0.338613 26.4985 0.712607 26.0183C1.24161 25.3394 1.7616 24.6548 2.27256 23.9645C5.05947 20.1984 7.83778 16.4259 10.6075 12.6468C11.4957 11.435 13.159 11.3352 14.1481 12.4826C14.5074 12.8987 14.468 14.366 14.4766 14.9233C14.5209 17.5391 14.4602 20.1526 14.2945 22.7636C14.2552 23.3878 14.1444 24.9305 13.6732 25.2883C13.1287 25.7019 12.5472 25.753 11.9288 25.4416C10.5989 24.7724 11.0651 19.0454 11.23 17.6182C11.2595 17.3615 11.2386 17.1547 11.1168 16.9478C11.108 16.9329 11.0954 16.9205 11.0802 16.9118C11.0651 16.9031 11.0479 16.8985 11.0304 16.8984C11.0129 16.8983 10.9957 16.9027 10.9804 16.9111C10.9652 16.9196 10.9524 16.9318 10.9433 16.9466C10.4881 17.7034 10.0338 18.4565 9.58022 19.206C9.14348 19.9275 8.54189 20.4933 8.05841 21.1807C6.93273 22.7855 5.83904 24.4268 4.57927 25.9331C3.37978 27.3676 4.43656 28.0161 5.18578 29.1768C6.77198 31.6321 8.37621 34.076 9.9985 36.5086C11.3173 38.4845 12.2183 39.7726 12.7014 40.3728C13.1811 40.9698 13.3333 41.5911 13.1578 42.2368C13.0409 42.6687 12.3889 43.6615 11.8119 43.6591Z" fill="white"/>
<path d="M62.7559 43.5842C60.9253 41.6557 59.8353 39.518 58.6211 37.4119C56.7117 34.1025 54.9094 30.7323 53.0235 27.4083C52.7356 26.9005 52.5592 26.4808 52.4945 26.149C52.364 25.4737 52.3431 24.5673 52.8254 24.0003C53.4905 23.2176 54.4477 22.0196 55.6968 20.4062C57.9572 17.4853 59.9879 14.7892 61.789 12.3176C62.1826 11.7774 63.0303 11.5864 63.5937 11.7008C64.3122 11.8456 64.6923 12.87 65.0577 13.4431C66.6661 15.9649 68.3121 18.4619 69.9959 20.9343C71.1327 22.6023 72.5524 24.1293 73.7629 25.7682C74.1332 26.2682 73.9192 26.4082 73.6768 26.8535C70.6012 32.5062 67.8504 37.5689 64.076 43.7448C63.8447 44.1232 62.9651 43.8044 62.7559 43.5842ZM58.3972 30.9476C58.5436 31.135 58.7195 31.1423 58.8757 30.9708C60.4119 29.2917 62.7157 26.7545 65.7873 23.3591C66.1563 22.9511 66.5119 22.531 66.8539 22.0986C66.8837 22.0614 66.9005 22.0155 66.9019 21.9677C66.9032 21.9199 66.889 21.8729 66.8613 21.8334C65.7155 20.1998 64.5775 18.5633 63.4473 16.924C62.9515 16.2062 62.5985 16.6503 62.2429 17.0834C60.195 19.5825 58.2434 22.1538 56.3882 24.7973C56.2389 25.0098 56.1036 25.2272 55.9822 25.4494C55.9629 25.4841 55.9515 25.5225 55.9487 25.562C55.9459 25.6015 55.9519 25.6412 55.9662 25.6781C56.4747 27.0197 57.0127 28.3455 57.5803 29.6555C57.7419 30.0286 58.0142 30.4593 58.3972 30.9476ZM60.2487 34.2911C60.5796 34.0843 61.0717 34.2753 61.2587 34.5953C62.1306 36.0902 62.8498 37.2566 63.4166 38.0945C63.5654 38.3159 63.8078 38.2198 63.9357 38.0227C64.6185 36.9739 65.3296 35.9312 65.9226 34.8435C67.1217 32.6478 68.4885 30.0449 70.023 27.0348C70.0911 26.9001 70.1292 26.7821 70.1374 26.6807C70.1406 26.6405 70.1302 26.6007 70.1079 26.5675C69.8212 26.1393 69.5899 25.4725 69.2406 25.1525C68.8567 24.8009 68.3326 24.5284 67.9082 25.026C65.6388 27.68 63.3731 30.3369 61.1111 32.9965C60.7797 33.3859 60.4689 33.7935 60.1786 34.2193C60.1721 34.229 60.1691 34.2406 60.1702 34.2522C60.1712 34.2638 60.1763 34.2747 60.1844 34.2831C60.1926 34.2915 60.2035 34.2968 60.2151 34.2983C60.2268 34.2997 60.2387 34.2972 60.2487 34.2911Z" fill="white"/>
<path d="M34.6023 43.2619C33.7424 44.1611 32.4728 43.5722 31.9302 42.6682C31.6866 42.2606 31.7248 41.3274 31.7297 40.8395C31.7531 38.1178 31.6583 35.3985 31.6719 32.6791C31.6981 27.3582 31.6407 22.0376 31.4996 16.7174C31.4742 15.7343 31.4553 14.7508 31.443 13.7669C31.432 12.8641 31.972 11.7934 33.0202 11.881C34.686 12.0222 35.2654 13.0612 35.2654 14.5857C35.2671 23.4578 35.2675 32.33 35.2666 41.2021C35.2666 42.0769 35.1719 42.6682 34.6023 43.2619Z" fill="white"/>
<path d="M19.5579 43.1557C17.5366 44.6583 16.438 43.2372 16.4404 41.2589C16.4544 32.6893 16.4782 24.1193 16.5118 15.549C16.5155 14.6146 16.2756 12.6922 17.3668 12.1885C17.7543 12.0096 18.9772 12.0339 19.3118 12.2493C19.8925 12.6228 19.9811 13.6582 19.9885 14.2617C20.018 16.6184 20.0377 18.9667 19.9626 21.3319C19.8929 23.5544 19.8581 25.1795 19.8581 26.2072C19.8581 26.6379 20.1767 26.627 20.5089 26.6282C22.127 26.6387 23.7452 26.6626 25.3634 26.7C27.0029 26.7373 28.1007 26.8139 28.6568 26.9299C29.6496 27.1367 29.8919 28.7245 29.6742 29.53C29.6004 29.8066 29.3896 30.2065 29.0418 30.7296C27.162 33.5621 25.0645 37.0065 23.3569 39.2173C22.246 40.6566 21.0293 42.0631 19.5579 43.1557ZM25.4397 29.8816C23.8539 29.5093 22.134 29.8086 20.5199 29.6748C20.1566 29.6448 19.97 29.8268 19.9602 30.2211C19.9052 32.4517 19.8974 34.6827 19.9368 36.9141C19.9425 37.258 19.9753 37.5796 20.0352 37.8789C20.039 37.897 20.0478 37.9137 20.0606 37.9272C20.0735 37.9406 20.0898 37.9502 20.1078 37.9549C20.1257 37.9596 20.1446 37.9592 20.1622 37.9537C20.1799 37.9482 20.1955 37.9379 20.2075 37.9239C22.2546 35.5477 23.9597 32.7627 25.5209 30.0653C25.5306 30.0484 25.5361 30.0295 25.5372 30.01C25.5382 29.9906 25.5346 29.9712 25.5267 29.9534C25.5188 29.9356 25.5069 29.9198 25.4918 29.9073C25.4767 29.8949 25.4588 29.8861 25.4397 29.8816Z" fill="white"/>
<path d="M80.4053 23.4157C80.5915 23.5487 80.792 23.6582 81.0069 23.7442C83.4945 24.7406 86.0263 25.6994 88.4462 26.848C89.3517 27.2787 89.423 28.8372 89.4341 29.6841C89.4858 33.5726 89.5374 37.4672 89.4144 41.3558C89.3824 42.3644 89.3541 43.1893 88.2174 43.2599C84.8818 43.4659 81.5437 43.5503 78.2032 43.513C77.3518 43.5033 75.8891 43.5033 75.4966 42.6041C75.3699 42.3145 75.3515 41.7463 75.349 41.3412C75.2891 32.1503 75.2772 22.959 75.3133 13.7673C75.3182 12.4752 76.4439 12.2817 77.5179 12.2793C80.6477 12.2752 83.7774 12.272 86.9072 12.2696C87.7708 12.2683 88.9014 12.3073 89.5965 12.794C90.1771 13.2015 90.1587 13.8549 89.781 14.3903C88.5262 16.1703 87.2418 17.2799 85.1934 19.066C83.6027 20.4542 81.8545 21.8157 80.3979 23.3354C80.3927 23.3408 80.3887 23.3473 80.3862 23.3544C80.3837 23.3616 80.3827 23.3692 80.3834 23.3767C80.3841 23.3843 80.3865 23.3917 80.3902 23.3984C80.394 23.4051 80.3991 23.411 80.4053 23.4157ZM79.5909 20.711C81.4994 19.0384 83.4042 17.3618 85.3054 15.6812C85.4669 15.5384 85.5781 15.4029 85.6388 15.2748C85.6534 15.2437 85.6607 15.2098 85.6602 15.1755C85.6596 15.1413 85.6512 15.1076 85.6356 15.077C85.62 15.0464 85.5975 15.0197 85.5699 14.999C85.5423 14.9782 85.5104 14.964 85.4764 14.9572C83.4858 14.5533 81.4879 14.7626 79.4863 14.8477C78.8417 14.8745 78.7605 15.2833 78.7555 15.8053C78.7342 17.7495 78.7158 19.7121 78.7002 21.6928C78.6997 21.7331 78.7127 21.7723 78.7372 21.8046C78.7616 21.837 78.7962 21.8605 78.8355 21.8717C78.9167 21.8948 79.1701 21.2877 79.2083 21.2098C79.3026 21.0184 79.4301 20.8521 79.5909 20.711ZM78.9425 40.2669C81.1701 40.3634 83.3866 40.3147 85.592 40.1208C86.0165 40.0831 86.1653 39.9615 86.1616 39.521C86.137 36.7275 86.1288 33.934 86.137 31.1404C86.1407 29.7741 85.886 28.7837 84.5943 28.1279C83.3567 27.5009 82.1043 26.9031 80.8371 26.3345C80.2442 26.0681 79.5085 25.6641 78.8921 25.7286C78.873 25.7309 78.8546 25.7374 78.8384 25.7477C78.8222 25.7581 78.8086 25.7719 78.7986 25.7882C78.5329 26.236 78.5673 27.14 78.5722 27.5768C78.6198 31.6 78.6895 35.6227 78.7814 39.6451C78.7855 39.8333 78.806 40.013 78.8429 40.1841C78.8478 40.2068 78.8602 40.2272 78.8783 40.2421C78.8963 40.2571 78.9189 40.2658 78.9425 40.2669Z" fill="white"/>
<path d="M92.6764 43.225C91.9149 42.6702 91.953 42.1032 91.9025 41.0848C91.8714 40.4684 91.8505 39.8515 91.8398 39.2342C91.6971 30.895 91.7795 22.5631 91.8324 14.2239C91.8447 12.332 94.3224 11.327 95.0938 13.6119C95.1799 13.865 95.2254 14.2734 95.2304 14.8371C95.2697 19.0007 95.2492 23.1638 95.1689 27.3265C95.1602 27.8156 95.8406 27.8424 96.1776 27.846C98.0665 27.8671 100.358 27.93 103.052 28.0346C103.723 28.0606 104.212 28.3457 104.52 28.8899C104.994 29.727 104.674 30.4242 104.114 31.2029C101.219 35.2358 98.2334 39.2018 95.1578 43.1009C95.0138 43.2834 94.9179 43.4647 94.6792 43.5438C93.964 43.7831 93.2964 43.6768 92.6764 43.225ZM100.295 30.816C100.195 30.7478 100.097 30.7129 100 30.7113C98.5598 30.6862 97.1196 30.6768 95.6794 30.6833C95.1824 30.6858 95.1024 31.4109 95.0778 31.765C94.9556 33.5811 94.9146 35.3992 94.9548 37.2194C94.9622 37.5268 95.0052 37.8192 95.084 38.0966C95.0879 38.1105 95.0954 38.1231 95.1058 38.1332C95.1162 38.1433 95.1291 38.1505 95.1431 38.1541C95.1571 38.1577 95.1717 38.1575 95.1856 38.1536C95.1994 38.1497 95.2119 38.1423 95.2217 38.1319C95.4333 37.9178 95.6597 37.6964 95.843 37.464C97.3128 35.5951 98.7058 33.6719 100.022 31.6944C100.146 31.5087 100.261 31.3095 100.368 31.097C100.392 31.0493 100.398 30.9947 100.384 30.9432C100.371 30.8916 100.339 30.8465 100.295 30.816Z" fill="white"/>
<path d="M38.1246 43.0933C37.01 42.5738 36.9559 41.6187 36.9854 40.5261C37.0826 36.9989 37.2339 33.1481 37.149 29.4627C37.0391 24.6941 37.0223 19.9251 37.0986 15.1556C37.1183 13.9937 37.2782 13.2174 38.207 12.5738C38.7914 12.1687 39.2134 12.4485 39.7042 12.7819C40.9111 13.5995 40.435 14.8794 40.4412 16.0633C40.4522 17.9333 40.4867 19.8253 40.4276 21.6954C40.4063 22.3394 40.4014 22.9834 40.4129 23.6275C40.4136 23.6678 40.4274 23.7066 40.4522 23.7382C40.5892 23.9174 40.7573 24.0026 40.9566 23.9937C42.3657 23.9328 43.634 23.9162 44.7618 23.9438C45.7657 23.9694 46.8434 23.9414 47.6246 23.855C47.8099 23.8347 47.9005 23.7065 47.8964 23.4705C47.88 22.3041 47.8341 21.1381 47.7586 19.9725C47.6766 18.7072 47.7197 16.9827 47.8878 14.7991C47.9383 14.1397 48.1437 13.4742 48.4636 12.9546C48.7552 12.4813 49.9017 12.6736 50.2536 12.8403C51.4076 13.3829 51.0446 15.8881 51.0459 16.9186C51.0524 25.8556 51.0491 31.4743 51.036 33.7747C51.0196 36.7012 51.0385 39.1346 51.0926 41.0748C51.1033 41.4828 51.0619 41.806 50.9684 42.0445C50.6177 42.9315 49.7357 43.5861 48.7552 43.389C47.9149 43.2198 47.5889 42.5689 47.5999 41.7476C47.6344 39.4177 47.6086 37.0865 47.6701 34.7638C47.7357 32.3296 47.7902 29.8959 47.8337 27.4625C47.8411 27.0695 47.5815 27.0318 47.2432 27.0451C45.6537 27.106 44.0544 27.0281 42.4711 27.1388C42.0044 27.1713 41.5369 27.1924 41.0686 27.2021C40.3981 27.2167 40.4842 28.1888 40.4744 28.6329C40.3842 32.8151 40.3226 36.9977 40.2898 41.1807C40.2837 41.9521 40.0905 42.2733 39.5578 42.7721C39.0871 43.2125 38.6093 43.3196 38.1246 43.0933Z" fill="white"/>
<path d="M109.093 26.9949C108.759 27.6239 108.778 28.8638 108.776 29.5865C108.76 33.0127 108.796 36.4389 108.884 39.8651C108.9 40.4649 109.039 41.1377 108.861 41.684C108.654 42.3155 108.163 43.0151 107.474 43.1721C107.357 43.1988 106.041 43.267 105.785 42.9628C105.351 42.4485 105.137 41.8617 105.143 41.2022C105.182 36.96 105.203 32.717 105.207 28.4732C105.208 27.8211 105.26 26.6482 105.232 25.6602C105.201 24.5591 106.265 23.9143 107.29 23.8668C109.146 23.7792 111.022 23.7841 112.894 23.7147C113.157 23.705 113.407 23.6697 113.645 23.6089C113.656 23.6061 113.666 23.6007 113.674 23.593C113.682 23.5854 113.688 23.5758 113.691 23.5652C113.694 23.5547 113.694 23.5435 113.692 23.5328C113.689 23.5221 113.684 23.5122 113.676 23.5042C112.994 22.7985 112.149 22.0771 111.551 21.487C109.781 19.739 108.033 17.9679 106.309 16.1737C105.729 15.571 105.364 15.1529 105.212 14.9193C104.742 14.2002 104.815 13.0796 105.64 12.6635C105.83 12.5678 106.144 12.5199 106.58 12.5199C110.81 12.5191 115.039 12.5195 119.267 12.5212C120.592 12.5224 121.669 12.9324 121.666 14.4387C121.644 23.6429 121.515 32.8509 121.537 42.0551C121.54 43.1088 120.273 43.7098 119.334 43.5139C118.526 43.3448 118.021 42.4858 118.029 41.7205C118.081 36.9065 118.08 32.0929 118.026 27.2796C118.02 26.7504 117.674 26.7954 117.233 26.7917C115.079 26.7771 112.926 26.7686 110.773 26.7662C110.289 26.7654 109.803 26.7917 109.315 26.8453C109.268 26.8505 109.224 26.8668 109.185 26.8929C109.147 26.919 109.115 26.954 109.093 26.9949ZM110.715 16.2272C113.017 18.5851 115.396 20.8689 117.855 23.0954C117.867 23.1066 117.883 23.1141 117.899 23.1172C117.915 23.1204 117.932 23.119 117.948 23.1131C117.963 23.1073 117.977 23.0974 117.987 23.0844C117.997 23.0714 118.004 23.0558 118.005 23.0395C118.249 20.8117 118.137 18.4489 118.082 16.2089C118.07 15.7612 117.731 15.586 117.299 15.5884C115.022 15.6038 112.759 15.5941 110.509 15.5592C110.485 15.5588 110.461 15.5646 110.44 15.5762C110.418 15.5877 110.4 15.6046 110.387 15.6251C110.375 15.6456 110.367 15.6691 110.367 15.6931C110.366 15.7172 110.371 15.7411 110.383 15.7624C110.48 15.9449 110.591 16.0998 110.715 16.2272Z" fill="white"/>
<path d="M26.8623 76.831C24.9812 74.9573 23.9552 72.7344 22.5281 70.3193C20.6446 67.1279 18.921 63.8319 17.0892 60.6089C16.8112 60.1206 16.6398 59.7126 16.575 59.3849C16.4482 58.7425 16.4089 57.7679 16.8825 57.2289C17.5321 56.49 18.3006 55.5414 19.188 54.3831C21.8855 50.8636 24.0028 48.0603 25.5398 45.9733C26.0897 45.2262 26.3825 44.905 27.3064 44.9014C27.9609 44.899 28.2328 45.1484 28.5674 45.7141C30.2085 48.4943 32.0662 51.1868 33.871 53.8672C34.2507 54.4309 34.701 55.0291 35.2218 55.6618C36.0551 56.6741 36.9568 57.821 37.9271 59.1026C38.0534 59.2681 38.0723 59.4331 37.9837 59.5978C34.8564 65.444 31.9592 70.7354 28.1946 76.8919C27.9252 77.3311 27.1206 77.089 26.8623 76.831ZM22.5343 64.2589C22.6844 64.3295 22.8131 64.306 22.9206 64.1884C25.2769 61.6204 27.6222 59.043 29.9563 56.4563C30.2762 56.1027 30.5916 55.7389 30.9024 55.3649C30.9421 55.3171 30.965 55.2579 30.9677 55.1962C30.9703 55.1345 30.9526 55.0737 30.9172 55.023C29.7566 53.3554 28.5904 51.682 27.4183 50.003C27.0111 49.4214 26.5842 49.9799 26.3197 50.3011C24.2751 52.7937 22.3284 55.3593 20.4798 57.9979C20.3223 58.2234 20.1792 58.4505 20.0504 58.6792C20.0316 58.7127 20.0205 58.7498 20.0179 58.7876C20.0154 58.8255 20.0214 58.8633 20.0356 58.8982C20.7467 60.6965 21.3938 62.6091 22.4346 64.1726C22.4596 64.21 22.494 64.2398 22.5343 64.2589ZM24.3427 67.5148C24.6577 67.2934 25.151 67.4966 25.3306 67.8044C25.9999 68.9473 26.6933 70.0751 27.411 71.188C27.5734 71.4399 27.7973 71.57 28.0027 71.2537C28.8356 69.9713 29.5467 68.9091 30.2319 67.6426C31.3818 65.5142 32.6719 63.0508 34.1023 60.2524C34.1695 60.1218 34.2064 60.0026 34.213 59.8947C34.2154 59.8559 34.2051 59.8171 34.1835 59.784C33.7627 59.1525 33.3617 57.8287 32.3184 57.9808C32.2777 57.9871 32.2406 58.0059 32.2126 58.0344C31.4462 58.8264 24.1607 67.252 24.2615 67.4917C24.2647 67.4991 24.2694 67.5057 24.2755 67.5111C24.2815 67.5164 24.2887 67.5203 24.2965 67.5225C24.3043 67.5248 24.3125 67.5252 24.3205 67.5239C24.3285 67.5225 24.3361 67.5194 24.3427 67.5148Z" fill="white"/>
<path d="M38.7111 76.7814C37.3972 76.7558 36.9642 75.544 37.5879 74.5341C37.8963 74.0345 38.3679 73.7478 39.0027 73.6739C39.1774 73.6533 39.2943 73.7616 39.4518 73.7384C39.8372 73.6833 40.187 73.5957 40.5012 73.4756C40.549 73.4571 40.59 73.4245 40.6184 73.3823C40.6468 73.34 40.6613 73.2902 40.6599 73.2396C40.4704 66.9688 40.479 60.7077 40.5344 54.4356C40.5385 53.9368 40.5627 53.4391 40.607 52.9427C40.6102 52.9031 40.6256 52.8653 40.6512 52.8345C42.3059 50.7977 44.9227 49.7368 46.8591 47.9555C48.0758 46.8362 49.4192 46.0575 50.9152 45.3944C51.7124 45.0415 52.1663 44.7921 52.8885 44.9515C53.5577 45.0975 54.0535 46.1512 54.2418 46.7194C54.3426 47.026 54.3923 47.4315 54.3906 47.9361C54.3472 57.4287 54.2938 66.8682 54.2307 76.2546C54.2291 76.4452 54.1331 76.5539 53.9428 76.5806C52.7528 76.7477 51.5688 76.8361 50.3911 76.8459C46.4978 76.8775 42.6045 76.856 38.7111 76.7814ZM43.952 72.8004C43.9569 73.3053 44.3777 73.4708 44.8193 73.4513C46.5868 73.3734 48.355 73.3637 50.1241 73.4221C50.5178 73.4355 50.599 73.354 50.674 72.9889C50.7651 72.5534 50.8561 72.1373 50.8647 71.6859C50.973 65.9638 50.9115 60.2417 50.8303 54.5196C50.8131 53.2404 50.8217 51.9617 50.8561 50.6833C50.8709 50.1395 50.6544 49.4922 49.9753 49.9825C48.2197 51.2479 46.6302 52.7079 44.8857 54.0013C44.2952 54.438 44.0221 54.9515 44.0098 55.7131C43.9147 61.4089 43.8954 67.1046 43.952 72.8004Z" fill="white"/>
<path d="M90.743 76.5561C90.0701 76.1996 89.8634 74.6301 89.8634 73.956C89.8609 67.441 89.8946 60.9261 89.9643 54.4111C89.9692 53.9329 90.0553 53.4171 90.1058 52.9316C90.1562 52.4571 90.6028 51.9096 90.9042 51.637C92.6019 50.1003 94.2554 48.4821 96.0023 47.0039C97.0554 46.112 97.6828 45.5256 98.838 45.3455C99.0669 45.3102 99.1714 45.4806 99.2994 45.6302C101.137 47.7708 102.983 49.9053 104.835 52.0337C105.034 52.2612 105.187 52.8683 105.191 53.2297C105.207 54.8049 105.195 56.3801 105.157 57.9553C105.03 63.076 104.952 68.1974 104.922 73.3197C104.917 74.2006 104.887 74.7493 104.832 74.9659C104.636 75.7494 103.885 76.8822 102.886 76.623C101.744 76.3274 101.537 74.9513 101.546 73.967C101.562 71.9911 101.685 69.93 101.529 67.9638C101.479 67.3603 100.613 67.4309 100.17 67.4102C97.6303 67.2967 95.4442 67.308 93.612 67.4443C93.2978 67.4678 93.1367 67.656 93.1285 68.0088C93.0735 70.379 93.0493 72.7491 93.0559 75.1192C93.0583 75.9465 91.4627 76.9394 90.743 76.5561ZM93.0879 62.6615C93.0731 63.8952 93.2736 64.1592 94.5568 64.1872C96.8475 64.2375 99.1883 64.2472 101.579 64.2164C101.61 64.2161 101.64 64.2098 101.668 64.198C101.696 64.1861 101.721 64.1689 101.743 64.1473C101.764 64.1258 101.781 64.1002 101.792 64.0722C101.804 64.0442 101.809 64.0142 101.809 63.984C101.808 63.8952 101.86 63.7662 101.862 63.6604C101.931 60.8936 101.958 58.1265 101.943 55.3589C101.938 54.4549 101.841 53.9341 101.29 53.2881C100.286 52.1087 99.4171 51.1135 98.683 50.3023C98.3107 49.8903 97.9043 49.8509 97.4639 50.1843C96.3714 51.0092 94.8865 52.232 93.6759 53.5387C93.2958 53.95 93.1137 54.3016 93.1149 54.8308C93.1248 57.8028 93.1158 60.413 93.0879 62.6615Z" fill="white"/>
<path d="M59.804 76.0921C58.8271 77.3027 57.4308 76.5337 57.0039 75.3377C56.9211 75.1073 56.8809 74.7537 56.8834 74.2767C56.8965 71.3461 56.91 68.4155 56.924 65.4849C56.9301 64.0724 56.9892 62.1621 56.9633 60.6023C56.8723 54.995 56.8497 50.5488 56.8957 47.2638C56.9153 45.8731 58.0558 45.0944 59.3943 45.7867C60.1866 46.1971 60.5704 46.8391 60.5458 47.7127C60.4855 49.9247 60.4092 52.1001 60.5114 54.2901C60.5119 54.3023 60.515 54.3143 60.5206 54.3252C60.5261 54.3361 60.534 54.3458 60.5436 54.3536C60.5532 54.3614 60.5644 54.3671 60.5764 54.3705C60.5885 54.3738 60.6011 54.3746 60.6135 54.3729C60.6651 54.3664 60.7152 54.3368 60.7636 54.2841C63.2782 51.5781 65.8002 48.8856 68.3345 46.1979C68.7306 45.7782 69.176 45.7332 69.7185 45.929C70.4591 46.1967 70.9155 46.6968 71.0164 47.4974C71.18 48.7883 71.0742 50.2398 71.0681 51.2922C71.0226 59.006 70.9795 66.6919 70.8872 74.3887C70.8774 75.2533 70.5383 75.9055 69.8698 76.3451C69.6853 76.4668 69.3876 76.5386 69.1526 76.5228C67.6025 76.4193 67.4487 75.3511 67.4721 74.0018C67.4926 72.7899 67.4922 71.5777 67.4709 70.3651C67.3958 66.204 67.461 62.0344 67.4709 57.8721C67.4745 56.2843 67.3638 54.3948 67.3946 52.6525C67.402 52.2011 67.6455 51.8969 67.8793 51.538C67.8873 51.5261 67.8907 51.5119 67.8889 51.4978C67.887 51.4837 67.8801 51.4708 67.8693 51.4613C67.8584 51.4517 67.8445 51.4463 67.8298 51.4458C67.8152 51.4454 67.8009 51.45 67.7895 51.4589C67.5869 51.6236 67.3839 51.8109 67.1805 52.021C65.5443 53.7098 63.7715 55.6873 61.8622 57.9536C61.0182 58.9562 60.5298 59.9624 60.499 61.2715C60.4023 65.4391 60.4068 69.6063 60.5126 73.773C60.536 74.733 60.3711 75.39 59.804 76.0921Z" fill="white"/>
<path d="M73.692 75.7444C73.432 75.4248 73.3032 75.0237 73.3057 74.5411C73.3254 70.9433 73.5407 66.326 73.4435 62.1223C73.3369 57.5727 73.3201 53.0226 73.3931 48.4722C73.4054 47.7114 73.4759 47.174 73.6047 46.8601C73.8027 46.3759 74.5827 45.4074 75.2323 45.6093C76.3001 45.9415 77.0014 46.826 76.8168 47.9855C76.6778 48.8603 76.7541 49.987 76.7405 50.582C76.7036 52.0809 76.7799 53.5665 76.7135 55.074C76.6856 55.688 76.6799 56.2359 76.6963 56.7177C76.7098 57.1132 77.0198 57.2117 77.3815 57.1971C78.8086 57.1355 80.2365 57.1257 81.6652 57.1679C82.364 57.1886 83.0886 57.1107 83.8009 57.09C84.1503 57.0803 84.2118 56.8418 84.2057 56.5328C84.1774 55.1616 84.0494 53.6261 84.0384 52.4289C84.0252 50.904 84.0757 49.3807 84.1897 47.859C84.2364 47.2507 84.5477 45.9561 85.3473 45.8819C86.9085 45.7359 87.4055 46.8272 87.3834 48.1376C87.3416 50.6521 87.3305 53.1666 87.3502 55.6811C87.3994 61.9398 87.2567 68.7898 87.3871 74.4595C87.4129 75.6324 86.4213 76.7822 85.1788 76.6289C84.2709 76.5157 83.8797 75.8356 83.892 74.9718C83.924 72.6491 83.9018 70.3252 83.9633 68.0099C84.0281 65.5659 84.0831 63.122 84.1282 60.6781C84.1343 60.2851 83.8723 60.2486 83.5352 60.2607C81.9359 60.3204 80.3255 60.2449 78.7323 60.3556C78.2648 60.3889 77.7969 60.4096 77.3286 60.4177C76.7713 60.4286 76.7934 61.1185 76.7836 61.5152C76.6762 65.8231 76.6101 70.1314 76.5855 74.4401C76.5806 75.2042 76.1205 75.9439 75.4722 76.2931C74.8238 76.6411 74.1091 76.2554 73.692 75.7444Z" fill="white"/>
<path d="M61.6978 89.4164C60.1563 90.2973 58.8892 91.3449 56.7596 92.9679C56.5644 93.1164 56.2757 93.3058 55.8935 93.5361C55.8614 93.5552 55.8247 93.5649 55.7877 93.5641L52.3307 93.4948C52.3056 93.4943 52.2809 93.4884 52.2583 93.4776C52.2358 93.4667 52.2158 93.451 52.1999 93.4317C52.184 93.4124 52.1725 93.3899 52.1662 93.3657C52.1599 93.3415 52.1589 93.3162 52.1634 93.2916C52.2803 92.6723 52.482 92.0603 52.5509 91.4787C52.8757 88.7132 52.7096 85.7092 52.6309 81.9934C52.6235 81.6551 52.6621 81.0281 52.7465 80.1124C52.7478 80.0972 52.7549 80.0831 52.7663 80.0729C52.7777 80.0627 52.7927 80.0573 52.8081 80.0576L56.5874 80.1988C56.6031 80.1994 56.6185 80.2035 56.6324 80.2107C56.6464 80.218 56.6585 80.2282 56.6679 80.2407C56.6774 80.2531 56.6839 80.2675 56.687 80.2828C56.69 80.2981 56.6896 80.3139 56.6858 80.329C55.9583 83.2644 55.6999 86.2417 55.9107 89.2607C55.9113 89.2674 55.9135 89.2739 55.9172 89.2797C55.9208 89.2854 55.9258 89.2902 55.9317 89.2937C55.9376 89.2971 55.9442 89.2991 55.9511 89.2995C55.9579 89.2999 55.9647 89.2987 55.971 89.296C58.0538 88.3847 59.9447 87.0852 61.8553 85.8698C61.9332 85.8195 61.9258 85.798 61.8331 85.8053L61.6769 85.8162C61.6014 85.8219 61.5818 85.7919 61.6178 85.7262C61.6703 85.6313 61.7552 85.5782 61.8725 85.5668C61.9188 85.5622 61.9616 85.5403 61.992 85.5057C62.0224 85.4711 62.0382 85.4263 62.0361 85.3807L61.8381 80.4202C61.8375 80.409 61.8394 80.3978 61.8434 80.3873C61.8475 80.3768 61.8537 80.3673 61.8617 80.3593C61.8697 80.3513 61.8792 80.345 61.8898 80.3408C61.9003 80.3367 61.9116 80.3347 61.9229 80.335L64.584 80.4153C64.592 80.4155 64.5999 80.4172 64.6072 80.4205C64.6146 80.4237 64.6212 80.4283 64.6267 80.4341C64.6322 80.4399 64.6365 80.4467 64.6393 80.4541C64.6421 80.4615 64.6433 80.4695 64.643 80.4774L64.4523 84.0253C64.4499 84.0739 64.4704 84.0869 64.5138 84.0642C66.5232 83.0178 68.4674 81.8652 70.3464 80.6064C70.3744 80.5874 70.4081 80.578 70.4424 80.5796C72.2476 80.6445 74.0523 80.6299 75.8567 80.5358C75.9568 80.5309 75.9666 80.5581 75.8862 80.6173L75.6758 80.7743C75.6702 80.7785 75.6656 80.7839 75.6623 80.7901C75.659 80.7963 75.6572 80.8031 75.6569 80.81C75.6567 80.8169 75.6581 80.8238 75.6609 80.83C75.6638 80.8363 75.668 80.8417 75.6734 80.846L75.7829 80.9336C75.7901 80.9395 75.7959 80.9469 75.7999 80.9553C75.8038 80.9636 75.8058 80.9727 75.8057 80.9819C75.8055 80.991 75.8033 81 75.7992 81.0081C75.795 81.0162 75.789 81.0232 75.7816 81.0286C75.388 81.3242 75.4138 81.6053 75.3621 82.0408C75.0956 84.3023 75.0821 86.5653 75.3215 88.83C75.3671 89.2631 75.4716 89.7425 74.8528 89.7948C74.8335 89.7964 74.8154 89.8052 74.8024 89.8194C74.7894 89.8336 74.7823 89.8523 74.7827 89.8715L74.8418 92.9813C74.842 92.9884 74.8405 92.9955 74.8375 93.002C74.8344 93.0084 74.8299 93.0141 74.8242 93.0186C74.8185 93.0231 74.8118 93.0262 74.8046 93.0278C74.7974 93.0293 74.7899 93.0293 74.7827 93.0276C74.0888 92.8499 73.3839 92.7717 72.6679 92.7927C72.6508 92.7934 72.6343 92.7991 72.6205 92.8091C72.6067 92.819 72.5962 92.8328 72.5904 92.8487C72.3948 93.3743 71.648 93.406 71.6468 92.7611C71.6468 92.745 71.6403 92.7295 71.6288 92.7181C71.6173 92.7067 71.6016 92.7003 71.5853 92.7003H71.4819C71.4723 92.7003 71.4628 92.6983 71.4539 92.6945C71.4451 92.6907 71.4371 92.685 71.4305 92.6779C71.424 92.6709 71.4189 92.6625 71.4157 92.6534C71.4125 92.6442 71.4112 92.6345 71.4118 92.6248L72.0208 83.1857C72.0213 83.1787 72.0201 83.1716 72.0171 83.1652C72.014 83.1587 72.0094 83.1532 72.0036 83.149C71.9978 83.1449 71.991 83.1423 71.9839 83.1415C71.9768 83.1406 71.9696 83.1417 71.963 83.1444C69.2798 84.2723 67.0088 86.3005 64.397 87.808C64.3806 87.8171 64.367 87.8305 64.3577 87.8465C64.3484 87.8626 64.3437 87.8808 64.3441 87.8992C64.3896 91.0115 64.4154 94.1299 64.5618 97.2361C64.6045 98.1389 64.563 99.0396 64.4376 99.9384C64.4352 99.9555 64.4265 99.9712 64.4132 99.9826C64.3999 99.994 64.3828 100 64.365 100H61.7249C61.7077 100 61.6909 99.9959 61.6762 99.9873C61.6615 99.9788 61.6494 99.9665 61.6412 99.9518L61.2155 99.1719C61.1963 99.1361 61.1873 99.0957 61.1897 99.0551L61.7655 89.4578C61.7688 89.4026 61.7462 89.3888 61.6978 89.4164Z" fill="white"/>
</svg>
